<svg width="31" height="27" viewBox="0 0 31 27" fill="none" xmlns="http://www.w3.org/2000/svg">
<path d="M8.22852 0.5C11.1674 0.5 13.728 2.08493 15.0908 4.46191L15.5303 5.22754L15.9609 4.45703C17.2717 2.11236 19.8534 0.524431 22.7959 0.524414C27.7767 0.524414 30.851 4.9539 30.4688 9.69824C30.2539 12.3027 29.0802 14.7909 27.4707 16.9199C25.8047 19.1018 23.7582 20.8853 21.543 22.5176L20.5869 23.2061V23.207L20.585 23.208C20.5835 23.209 20.5811 23.2109 20.5781 23.2129C20.5723 23.217 20.5631 23.2226 20.5518 23.2305C20.5289 23.2463 20.4954 23.2698 20.4521 23.2998C20.3654 23.36 20.24 23.4472 20.085 23.5547C19.7746 23.77 19.3453 24.0681 18.8721 24.3965L16.0889 26.3291C15.8053 26.5258 15.4239 26.5567 15.0908 26.4014L14.9512 26.3223C14.2376 25.8257 13.1121 25.0491 12.1641 24.3955C11.6876 24.0671 11.2552 23.769 10.9424 23.5537C10.7862 23.4462 10.6598 23.359 10.5723 23.2988C10.5285 23.2687 10.4938 23.2454 10.4707 23.2295C10.4596 23.2219 10.4512 23.2159 10.4453 23.2119C10.4425 23.21 10.44 23.2081 10.4385 23.207L10.4365 23.2061V23.2051H10.4346C8.01438 21.4968 5.71225 19.6352 3.8877 17.3779L3.5293 16.9209L3.52832 16.9189L3.22754 16.5166C1.85475 14.6164 0.871068 12.4322 0.582031 10.1611L0.53125 9.67383C0.149077 4.93269 3.26968 0.500049 8.22852 0.5Z" fill="#FC9B09" stroke="#FC9B09"/>
</svg>
